<?xml version="1.0" encoding="utf-8"?>
<svg class="svg-icon" style="width: 1em; height: 1em;vertical-align: middle;fill: currentColor;overflow: hidden;" viewBox="0 0 1024 1024" version="1.1" xmlns="http://www.w3.org/2000/svg"><path d="M804.7616 178.2784H219.2384c-22.528 0-40.96 18.432-40.96 40.96v585.5232c0 22.528 18.432 40.96 40.96 40.96h585.5232c22.528 0 40.96-18.432 40.96-40.96V219.2384c0-22.528-18.432-40.96-40.96-40.96zM697.0368 703.1808c0 16.896-13.824 30.72-30.72 30.72s-30.72-13.824-30.72-30.72V542.72H388.4032v160.4608c0 16.896-13.824 30.72-30.72 30.72s-30.72-13.824-30.72-30.72V320.8192c0-16.896 13.824-30.72 30.72-30.72s30.72 13.824 30.72 30.72V481.28h247.296V320.8192c0-16.896 13.824-30.72 30.72-30.72s30.72 13.824 30.72 30.72v382.3616z"  /></svg>